<svg width="45" height="45" viewBox="0 0 45 45" fill="none" xmlns="http://www.w3.org/2000/svg">
<path fill-rule="evenodd" clip-rule="evenodd" d="M27.4497 5.52946C24.7161 2.79579 20.2839 2.79579 17.5503 5.52946L5.52944 17.5503C2.79577 20.2839 2.79577 24.7161 5.52944 27.4498L17.5503 39.4706C20.2839 42.2043 24.7161 42.2043 27.4497 39.4706L39.4706 27.4498C42.2042 24.7161 42.2042 20.2839 39.4706 17.5503L27.4497 5.52946ZM24.5417 8.45839C23.3701 7.28682 21.4706 7.28682 20.299 8.45839L8.27822 20.4792C7.10664 21.6508 7.10664 23.5503 8.27822 24.7218L20.299 36.7427C21.4706 37.9142 23.3701 37.9142 24.5417 36.7427L36.5625 24.7218C37.7341 23.5503 37.7341 21.6508 36.5625 20.4792L24.5417 8.45839Z" fill="#E9E5DA"/>
<rect x="22.5" y="10.4792" width="17" height="17" rx="1" transform="rotate(45 22.5 10.4792)" fill="#E9E5DA"/>
</svg>
